<svg width="1600" height="900" viewBox="0 0 1600 900" xmlns="http://www.w3.org/2000/svg">
  <defs>
    <linearGradient id="linen" x1="0" y1="0" x2="1" y2="1">
      <stop offset="0%" stop-color="#F7F3EF"/>
      <stop offset="100%" stop-color="#F7F3EF"/>
    </linearGradient>
    <linearGradient id="sage" x1="0" y1="0" x2="1" y2="0">
      <stop offset="0%" stop-color="#7BAE9C" stop-opacity="0.30"/>
      <stop offset="100%" stop-color="#7BAE9C" stop-opacity="0"/>
    </linearGradient>
    <linearGradient id="euca" x1="0" y1="1" x2="1" y2="0">
      <stop offset="0%" stop-color="#2E7D6D" stop-opacity="0.25"/>
      <stop offset="100%" stop-color="#2E7D6D" stop-opacity="0"/>
    </linearGradient>
    <linearGradient id="lav" x1="1" y1="1" x2="0" y2="0">
      <stop offset="0%" stop-color="#C7B8D6" stop-opacity="0.22"/>
      <stop offset="100%" stop-color="#C7B8D6" stop-opacity="0"/>
    </linearGradient>
    <filter id="soft" x="-20%" y="-20%" width="140%" height="140%">
      <feGaussianBlur stdDeviation="85"/>
    </filter>
  </defs>

  <rect width="1600" height="900" fill="url(#linen)"/>

  <g filter="url(#soft)">
    <!-- Sage wash -->
    <path d="M -200 160 C 300 40, 900 120, 1800 -20 L 1800 0 L -200 0 Z" fill="url(#sage)"/>
    <!-- Eucalyptus wave -->
    <path d="M -200 520 C 250 460, 900 560, 1600 420 L 1600 900 L -200 900 Z" fill="url(#euca)"/>
    <!-- Lavender mist -->
    <path d="M 700 700 C 950 760, 1300 820, 1800 840 L 1800 900 L 700 900 Z" fill="url(#lav)"/>
  </g>
</svg>
