<!-- assets/ic-logo.svg -->
<svg xmlns="http://www.w3.org/2000/svg" viewBox="0 0 64 64" role="img" aria-label="IC monogram">
  <g fill="currentColor">
    <!-- “I” -->
    <path d="M18 16h8v32h-8z"></path>
    <!-- “C” with subtle wyrm-tail curve -->
    <path d="M52 22c-3.2-4.4-7.7-6.8-13.4-6.8-11.1 0-18.6 7.6-18.6 17.8S27.5 51 38.6 51c5.6 0 10-2.1 13.4-6.4l-5.6-4.2c-2.4 3-5.1 4.4-8.5 4.4-6.9 0-11.6-4.6-11.6-11.6S31 20 38 20c3.3 0 5.9 1.2 8.3 3.9 0 0 2.3-1.7 5.7-1.9zM51 24c-.4 4.2-2.2 6.4-6.3 8.8 3.6-1 5.6-3 6.3-8.8z"></path>
  </g>
</svg>
